<svg width="583" height="205" viewBox="0 0 583 205" fill="none" xmlns="http://www.w3.org/2000/svg">
<g clip-path="url(#clip0_55_263)">
<path d="M206.403 97.3632C217.481 97.3632 226.462 88.3685 226.462 77.2729C226.462 66.1773 217.481 57.1826 206.403 57.1826C195.325 57.1826 186.344 66.1773 186.344 77.2729C186.344 88.3685 195.325 97.3632 206.403 97.3632Z" fill="#FFD976"/>
<path fill-rule="evenodd" clip-rule="evenodd" d="M311.976 35.5291C317.866 31.9663 324.545 31.7288 330.198 32.9164L331.265 33.1341L332.273 33.53C361.344 45.2081 370.81 72.7802 372.767 96.4927C374.071 95.8791 375.257 94.9686 376.364 93.7414C381.008 88.6347 388.913 88.2785 393.992 92.9497C399.071 97.6011 399.447 105.519 394.783 110.625C388.024 118.048 380.079 121.432 372.194 122.244C370.949 132.2 368.617 141.127 365.613 147.342C343.32 193.639 304.605 209.79 268.873 203.179C234.269 196.786 203.676 169.055 196.818 131.329C195.573 124.54 200.079 118.008 206.858 116.781C213.636 115.534 220.138 120.047 221.383 126.836C226.265 153.676 248.32 173.944 273.419 178.576C297.391 183.01 325.435 173.271 343.162 136.475C344.802 133.051 346.7 126.242 347.628 117.592C336.107 112.367 326.344 103.994 321.028 98.1158L320.751 97.7991L320.494 97.4824C313.557 88.6941 308.617 80.6976 305.494 73.473C302.411 66.3672 300.79 59.2812 301.502 52.6702C302.273 45.6831 305.711 39.3096 311.976 35.5291ZM346.324 87.5659C343.518 74.8388 337.371 64.2889 326.66 58.5092C326.956 59.7958 327.49 61.4386 328.379 63.5169C330.375 68.1288 333.933 74.146 339.783 81.6081C341.502 83.4489 343.755 85.5272 346.324 87.5659Z" fill="white"/>
<path fill-rule="evenodd" clip-rule="evenodd" d="M0 11.5198C0.0197628 5.14628 5.1581 0 11.502 0C17.8458 0 23.004 5.14628 23.004 11.5198V61.122C38.5573 44.5945 60.6522 34.3019 84.9209 34.3019C132.213 34.3019 170.158 72.3646 170.158 119.473C170.158 166.581 132.213 204.961 84.9209 204.961C37.9447 204.941 0 166.561 0 119.453V11.5198ZM147.154 119.453C147.154 85.1313 119.466 57.3612 84.9407 57.3612C50.7115 57.3612 23.0237 85.1313 23.0237 119.453C23.0237 153.775 50.7115 181.842 84.9407 181.842C119.466 181.862 147.154 153.775 147.154 119.453Z" fill="white"/>
<path fill-rule="evenodd" clip-rule="evenodd" d="M582.905 11.5197V119.453C582.905 166.561 544.941 204.941 497.965 204.941C450.988 204.941 412.728 166.561 412.728 119.453C412.728 72.3448 450.988 34.2821 497.965 34.2821C522.233 34.2821 544.309 44.5747 559.882 61.1022V11.5197C559.901 5.14628 565.04 0 571.403 0C577.747 0 582.886 5.14628 582.905 11.5197ZM497.984 181.862C532.214 181.862 559.901 153.775 559.901 119.473C559.901 85.1511 532.214 57.381 497.984 57.381C463.755 57.381 435.771 85.1511 435.771 119.473C435.751 153.775 463.755 181.862 497.984 181.862Z" fill="white"/>
</g>
<defs>
<clipPath id="clip0_55_263">
<rect width="582.905" height="204.941" fill="white"/>
</clipPath>
</defs>
</svg>
